<?xml version="1.0" encoding="iso-8859-1"?>
<!-- Generator: Adobe Illustrator 19.0.0, SVG Export Plug-In . SVG Version: 6.00 Build 0)  -->
<svg version="1.1" id="Layer_1" xmlns="http://www.w3.org/2000/svg" xmlns:xlink="http://www.w3.org/1999/xlink" x="0px" y="0px"
	 viewBox="0 0 511.999 511.999" style="enable-background:new 0 0 511.999 511.999;" xml:space="preserve">
<g>
	<g>
		<path d="M424.604,367.783l50.982-11.852l-7.57-32.564l-45.884,10.667c-5.734-33.622-21.039-66.338-43.941-93.115
			c20.398-28.261,36.519-64.516,45.937-103.675c9.715-40.395,10.989-79.329,3.411-104.148c-6.575-21.53-18.56-29.159-27.459-31.767
			c-8.213-2.408-21.333-2.722-37.192,9.447c-33.103,25.401-68.55,100.03-73.331,174.202c-10.969-2.574-22.197-3.899-33.557-3.899
			c-11.36,0-22.588,1.325-33.557,3.899c-4.781-74.172-40.228-148.802-73.331-174.202c-15.861-12.17-28.979-11.857-37.193-9.448
			c-8.896,2.609-20.882,10.238-27.458,31.767c-7.579,24.819-6.304,63.753,3.411,104.148c9.418,39.159,25.539,75.415,45.937,103.675
			c-22.902,26.777-38.206,59.495-43.941,93.115l-45.884-10.667l-7.57,32.564l50.982,11.852c0.508,20.176,4.622,38.934,12.144,55.901
			l-63.125,14.676l7.57,32.564l73.963-17.195c5.852,7.212,12.511,13.926,19.971,20.083c26.592,21.95,62.119,35.25,101.367,38.19
			v-82.876c-14.57-8.472-27.814-25.651-27.814-39.56c0-26.232,28.968-26.232,44.53-26.232s44.531,0,44.531,26.232
			c0,13.909-13.245,31.089-27.815,39.56v82.875c39.248-2.94,74.773-16.239,101.365-38.19c7.46-6.158,14.118-12.871,19.971-20.083
			l73.963,17.195l7.57-32.564l-63.125-14.676C419.982,406.717,424.096,387.958,424.604,367.783z M204.057,318.76
			c-11.293,0-20.484-9.303-20.484-20.779c0-11.477,9.19-20.772,20.484-20.772c11.308,0,20.496,9.295,20.496,20.772
			C224.553,309.455,215.365,318.76,204.057,318.76z M307.794,318.914c-11.403,0-20.652-9.372-20.652-20.934
			c0-11.562,9.25-20.934,20.652-20.934c11.388,0,20.638,9.372,20.638,20.934S319.183,318.914,307.794,318.914z"/>
	</g>
</g>
<g>
</g>
<g>
</g>
<g>
</g>
<g>
</g>
<g>
</g>
<g>
</g>
<g>
</g>
<g>
</g>
<g>
</g>
<g>
</g>
<g>
</g>
<g>
</g>
<g>
</g>
<g>
</g>
<g>
</g>
</svg>
