<?xml version="1.0" encoding="iso-8859-1"?>
<!-- Generator: Adobe Illustrator 19.0.0, SVG Export Plug-In . SVG Version: 6.00 Build 0)  -->
<svg version="1.1" id="Layer_1" xmlns="http://www.w3.org/2000/svg" xmlns:xlink="http://www.w3.org/1999/xlink" x="0px" y="0px"
	 viewBox="0 0 296.999 296.999" style="enable-background:new 0 0 296.999 296.999;" xml:space="preserve">
<g>
	<g>
		<g>
			<path d="M147.444,259.621c-14.214,0-14.214,3.622-14.214,6.818c0,9.492,7.97,21.61,14.214,21.61
				c6.244,0,14.213-12.118,14.213-21.61C161.657,263.243,161.657,259.621,147.444,259.621z"/>
			<path d="M32.975,114.237c1.676-28.675,13.307-50.239,34.656-64.155c11.789-7.685,26.695-13.003,44.536-15.912
				C101.618,18.578,83.928,8.949,64.635,8.949c-31.652,0-57.402,25.75-57.402,57.401C7.233,86.034,17.041,103.777,32.975,114.237z"
				/>
			<path d="M261.987,115.521c17.134-10.251,27.78-28.66,27.78-49.171c0-31.651-25.75-57.401-57.402-57.401
				c-19.433,0-37.242,9.767-47.763,25.559c17,2.971,31.286,8.164,42.654,15.574C248.923,64.205,260.589,86.202,261.987,115.521z"/>
			<path d="M292.211,204.011c-22.34-9.74-44.983-11.505-63.937-10.195c11.191-22.995,17.909-48.795,17.909-72.209
				c0-27.017-9.04-46.043-27.636-58.165c-16.235-10.583-40.157-15.949-71.103-15.949c-30.946,0-54.869,5.366-71.104,15.949
				C57.744,75.564,48.704,94.59,48.704,121.607c0,23.369,6.691,49.113,17.844,72.074c-18.498-1.028-40.269,0.96-61.759,10.33
				c-4.037,1.76-5.882,6.46-4.122,10.496c1.759,4.038,6.459,5.885,10.496,4.122c22.745-9.915,46.37-10.277,64.767-7.982
				c3.914,6.244,8.168,12.13,12.702,17.53c-21.126,5.865-50.824,18.399-72.83,44.87c-2.816,3.387-2.353,8.414,1.034,11.229
				c1.489,1.239,3.297,1.843,5.094,1.843c2.288,0,4.559-0.979,6.135-2.876c22.391-26.933,54.898-37.65,73.467-41.756
				c5.982,5.284,12.291,9.704,18.835,13.02c2.112-3.439,4.987-5.667,7.601-7.077c4.751-2.563,10.94-3.757,19.476-3.757
				c8.536,0,14.724,1.194,19.475,3.757c2.615,1.41,5.491,3.64,7.603,7.081c6.705-3.398,13.164-7.953,19.275-13.412
				c18.204,3.789,51.975,14.282,75.138,42.144c1.577,1.897,3.848,2.876,6.135,2.876c1.797,0,3.605-0.604,5.094-1.843
				c3.387-2.815,3.85-7.843,1.034-11.229c-22.61-27.197-53.341-39.683-74.551-45.338c4.313-5.182,8.369-10.804,12.116-16.755
				c18.703-2.614,43.365-2.659,67.073,7.676c1.038,0.453,2.119,0.667,3.183,0.667c3.075,0,6.006-1.79,7.313-4.789
				C298.093,210.471,296.248,205.771,292.211,204.011z M109.151,164.934c-5.035,0-9.117-4.082-9.117-9.118
				c0-5.036,4.082-9.118,9.117-9.117c5.035,0,9.117,4.082,9.117,9.117C118.268,160.852,114.186,164.934,109.151,164.934z
				 M188.329,164.934c-5.035,0-9.117-4.082-9.117-9.118c0-5.036,4.082-9.118,9.117-9.117c5.035,0,9.117,4.082,9.117,9.117
				C197.446,160.852,193.364,164.934,188.329,164.934z"/>
		</g>
	</g>
</g>
<g>
</g>
<g>
</g>
<g>
</g>
<g>
</g>
<g>
</g>
<g>
</g>
<g>
</g>
<g>
</g>
<g>
</g>
<g>
</g>
<g>
</g>
<g>
</g>
<g>
</g>
<g>
</g>
<g>
</g>
</svg>
